# xmcd
#
# Track frame offsets: 
#        150
#        27276
#        49544
#        73661
#        104650
#        129414
#        142901
#        172972
#        187937
#        212525
#        242375
#        266670
#
# Disc length: 4412 seconds
#
# Revision: 0
# Processed by: cddbd v1.5.1PL2 Copyright (c) Steve Scherf et al.
# Submitted via: ExactAudioCopy v0.95a5
#
DISCID=9f113a0c
DTITLE=DZEM - SKAZANY NA BLUESA
DYEAR=2005
DGENRE=Blues
TTITLE0=Z³oty paw
TTITLE1=Wiem, Na Pewno Wiem - Nie, Nie Kocham Ciê (Live)
TTITLE2=Czerwony jak ceg³a
TTITLE3=List do M.
TTITLE4=Ma³a Aleja Roz (Live)
TTITLE5=Sen o Victorii (Instr.)
TTITLE6=Jesiony
TTITLE7=Norweska impresja bluesowa (Live)
TTITLE8=Skazany na bluesa
TTITLE9=Autsajder
TTITLE10=Whisky
TTITLE11=Niewinna I Ja - Cz. I I II (Live)
EXTD=
EXTT0=
EXTT1=
EXTT2=
EXTT3=
EXTT4=
EXTT5=
EXTT6=
EXTT7=
EXTT8=
EXTT9=
EXTT10=
EXTT11=
PLAYORDER=
